<?xml version="1.0" encoding="UTF-8"?><svg id="d" xmlns="http://www.w3.org/2000/svg" width="107" height="107" viewBox="0 0 107 107"><rect x="-.66" y="72.87" width="106.09" height="27.63" fill="#fff"/><rect x="20.34" y="5.46" width="62.99" height="27.63" fill="#fff"/><polygon points="94.38 72.87 73.38 72.87 57.91 33.09 78.91 33.09 94.38 72.87" fill="#fff"/><polygon points="10.14 72.87 31.14 72.87 46.61 33.09 25.61 33.09 10.14 72.87" fill="#fff"/><rect x="34.7" y="66.24" width="35.36" height="16.58" fill="#fff"/><path d="M52.06,15.04c-3.69-.03-7.38-.07-11.07-.09-3.26-.01-6.51,0-9.83,0v8.29h8.73c-.77,2.01-1.47,3.86-2.18,5.71-6.77,17.41-13.55,34.8-20.27,52.23-.46,1.19-1.01,1.64-2.3,1.54-1.65-.13-3.33-.03-5.06-.03v8.49h28.44v-8.35h7.99v16.56H1.55v-24.7c.32-.02.69-.07,1.05-.07,2.66,0,5.33.03,7.99-.04.42-.01,1.07-.38,1.21-.73,5.29-13.94,10.54-27.9,15.79-41.86.04-.11.05-.24.09-.45h-4.96V6.84h58.83v24.67h-4.94c.17.55.28.97.44,1.38,5.1,13.56,10.21,27.12,15.28,40.69.32.85.68,1.18,1.62,1.16,2.91-.07,5.83-.02,8.84-.02v24.69h-45.04v-16.54h8.08v8.34h28.38v-8.51c-1.81,0-3.68-.06-5.54.02-.89.04-1.27-.26-1.58-1.07-7.41-19.13-14.84-38.24-22.27-57.36-.1-.27-.17-.56-.28-.95h8.63v-8.3c-.28-.03-.52-.07-.77-.07-6.49,0-12.97,0-19.46,0-.25,0-.51.05-.76.08-.04-.04-.08-.04-.11,0Z" fill="#01275c"/><path d="M52.06,15.04s.08-.04.11,0c5.09,13.16,10.19,26.31,15.28,39.47,2.67,6.9,5.28,13.82,8.02,20.69,1.32,3.32,3.23,6.24,6.94,7.68h-15.63c2.23-1.44,1.41-3.13.71-4.87-1.43-3.57-2.82-7.16-4.17-10.76-.3-.78-.64-1.13-1.55-1.12-6.4.05-12.8.04-19.2,0-.9,0-1.26.33-1.56,1.12-1.42,3.76-2.87,7.51-4.39,11.23-.67,1.64-.97,3.12.91,4.42h-15.66c3.83-1.45,5.76-4.54,7.11-8.02,6.93-17.86,13.8-35.73,20.69-53.6.8-2.07,1.59-4.15,2.39-6.23ZM52.28,38.3c-2.87,7.29-5.61,14.25-8.39,21.29h16.49c-2.7-7.09-5.34-14.03-8.1-21.29Z" fill="#be2338"/><path d="M52.28,38.3c2.76,7.26,5.4,14.2,8.1,21.29h-16.49c2.77-7.04,5.52-14,8.39-21.29Z" fill="#fdfafa"/></svg>