<?xml version="1.0" encoding="UTF-8"?><svg xmlns="http://www.w3.org/2000/svg" width="44.66" height="35.78" viewBox="0 0 44.66 35.78"><g id="a"><polygon points="39.11 35.76 0 35.76 14.81 6.34 24.33 6.37 39.11 35.76" fill="#fff"/><rect x="8.18" width="22.73" height="9.53" fill="#fff"/></g><g id="b"><path d="M19.51,3.17c-1.43-.01-2.85-.03-4.28-.03-1.26,0-2.52,0-3.8,0v3.2h3.37c-.3.78-.57,1.49-.84,2.2-2.61,6.72-5.23,13.45-7.83,20.18-.18.46-.39.63-.89.59-.64-.05-1.29-.01-1.95-.01v3.28h10.99v-3.22h3.09v6.4H0v-9.54c.12,0,.27-.03.41-.03,1.03,0,2.06.01,3.09-.01.16,0,.41-.15.47-.28,2.04-5.39,4.07-10.78,6.1-16.17.02-.04.02-.09.03-.17h-1.92V0h22.73v9.53h-1.91c.07.21.11.38.17.53,1.97,5.24,3.95,10.47,5.9,15.72.12.33.26.45.63.45,1.13-.03,2.25,0,3.41,0v9.54h-17.4v-6.39h3.12v3.22h10.96v-3.29c-.7,0-1.42-.02-2.14,0-.34.01-.49-.1-.61-.41-2.86-7.39-5.73-14.77-8.6-22.16-.04-.1-.06-.21-.11-.37h3.33v-3.21c-.11-.01-.2-.03-.3-.03-2.51,0-5.01,0-7.52,0-.1,0-.2.02-.29.03-.01-.02-.03-.02-.04,0Z" fill="#01275c"/><path d="M19.51,3.17s.03-.02.04,0c1.97,5.08,3.94,10.16,5.9,15.25,1.03,2.66,2.04,5.34,3.1,7.99.51,1.28,1.25,2.41,2.68,2.97h-6.04c.86-.56.54-1.21.28-1.88-.55-1.38-1.09-2.77-1.61-4.16-.11-.3-.25-.44-.6-.43-2.47.02-4.94.02-7.42,0-.35,0-.49.13-.6.43-.55,1.45-1.11,2.9-1.7,4.34-.26.64-.38,1.2.35,1.71h-6.05c1.48-.56,2.22-1.75,2.75-3.1,2.68-6.9,5.33-13.8,7.99-20.71.31-.8.61-1.6.92-2.41ZM19.6,12.16c-1.11,2.82-2.17,5.51-3.24,8.23h6.37c-1.04-2.74-2.06-5.42-3.13-8.23Z" fill="#be2338"/><path d="M44.66,34.16c0,.9-.73,1.61-1.65,1.61-.94,0-1.69-.74-1.68-1.65.01-.9.75-1.61,1.66-1.62.93,0,1.68.73,1.67,1.66ZM42.28,33.18c-.08.02-.18.02-.23.07-.4.4-.47,1.05-.18,1.55.29.51.89.77,1.43.63.6-.16.98-.65.98-1.26,0-.6-.35-1.12-.9-1.27-.41-.11-.84-.19-1.11.29h0Z" fill="#153868"/><path d="M19.6,12.16c1.07,2.81,2.09,5.49,3.13,8.23h-6.37c1.07-2.72,2.13-5.41,3.24-8.23Z" fill="#fdfafa"/><path d="M42.27,33.19c.27-.49.7-.4,1.11-.29.56.15.91.67.9,1.27,0,.62-.39,1.1-.98,1.26-.54.15-1.14-.12-1.43-.63-.29-.51-.22-1.15.18-1.55.05-.05.15-.05.23-.07,0,.56,0,1.12,0,1.68,0,.07.11.15.17.22.04-.07.11-.14.12-.22.02-.19,0-.37,0-.56.63-.06.44.91,1.11.75-.15-.25-.29-.49-.43-.72.05,0,.1.01.15.02.09-.27.31-.61.22-.78-.11-.2-.49-.28-.76-.36-.18-.05-.39-.02-.59-.03Z" fill="#f5f6f8"/><path d="M42.27,33.19c.2,0,.41-.03.59.03.28.08.65.16.76.36.09.17-.13.51-.22.78-.05,0-.1-.01-.15-.02.14.23.28.47.43.72-.67.16-.48-.81-1.11-.75,0,.19.01.38,0,.56,0,.08-.08.15-.12.22-.06-.07-.16-.14-.17-.22-.01-.56,0-1.12,0-1.68,0,0,0,0,0,0ZM42.6,34.07c.27-.08.5-.14.71-.22.03,0,.01-.24-.02-.25-.21-.07-.44-.11-.69-.17v.64Z" fill="#103465"/><path d="M42.6,34.07v-.64c.25.06.48.1.69.17.03.01.04.24.02.25-.21.08-.43.14-.71.22Z" fill="#f5f6f8"/></g></svg>