<?xml version="1.0" encoding="UTF-8"?><svg id="f" xmlns="http://www.w3.org/2000/svg" width="45" height="45" viewBox="0 0 45 45"><rect x=".5" y="29.76" width="44" height="11.64" fill="#fff"/><rect x="9.21" y="1.35" width="26.13" height="11.64" fill="#fff"/><polygon points="39.92 29.76 31.21 29.76 24.79 12.99 33.5 12.99 39.92 29.76" fill="#fff"/><polygon points="4.98 29.76 13.69 29.76 20.1 12.99 11.4 12.99 4.98 29.76" fill="#fff"/><rect x="15.17" y="26.96" width="14.67" height="6.98" fill="#fff"/><path d="M22.36,5.39c-1.53-.01-3.06-.03-4.59-.04-1.35,0-2.7,0-4.07,0v3.49h3.62c-.32.85-.61,1.63-.9,2.4-2.81,7.33-5.62,14.66-8.41,22-.19.5-.42.69-.95.65-.69-.06-1.38-.01-2.1-.01v3.58h11.8v-3.52h3.31v6.98H1.42v-10.41c.13,0,.29-.03.44-.03,1.1,0,2.21.01,3.31-.02.17,0,.45-.16.5-.31,2.2-5.87,4.37-11.76,6.55-17.64.02-.05.02-.1.04-.19h-2.06V1.93h24.4v10.39h-2.05c.07.23.12.41.18.58,2.11,5.71,4.24,11.42,6.34,17.14.13.36.28.5.67.49,1.21-.03,2.42-.01,3.67-.01v10.4h-18.68v-6.97h3.35v3.51h11.77v-3.59c-.75,0-1.53-.02-2.3.01-.37.02-.53-.11-.66-.45-3.07-8.06-6.16-16.11-9.24-24.17-.04-.11-.07-.23-.12-.4h3.58v-3.5c-.11-.01-.22-.03-.32-.03-2.69,0-5.38,0-8.07,0-.11,0-.21.02-.32.03-.02-.02-.03-.02-.05,0Z" fill="#01275c"/><path d="M22.36,5.39s.03-.02.05,0c2.11,5.54,4.23,11.09,6.34,16.63,1.11,2.91,2.19,5.82,3.33,8.72.55,1.4,1.34,2.63,2.88,3.23h-6.48c.92-.61.58-1.32.3-2.05-.59-1.5-1.17-3.02-1.73-4.53-.12-.33-.27-.48-.64-.47-2.65.02-5.31.02-7.96,0-.38,0-.52.14-.65.47-.59,1.58-1.19,3.16-1.82,4.73-.28.69-.4,1.31.38,1.86h-6.49c1.59-.61,2.39-1.91,2.95-3.38,2.87-7.52,5.72-15.05,8.58-22.58.33-.87.66-1.75.99-2.62ZM22.46,15.19c-1.19,3.07-2.33,6.01-3.48,8.97h6.84c-1.12-2.99-2.21-5.91-3.36-8.97Z" fill="#be2338"/><path d="M22.46,15.19c1.15,3.06,2.24,5.98,3.36,8.97h-6.84c1.15-2.97,2.29-5.9,3.48-8.97Z" fill="#fdfafa"/></svg>